Coordinates
version=1
nRows=14
nColumns=24
inDegrees=yes

Units are S.I. units (second, meters, Newtons, ...)
Angles are in degrees.

endheader
time	pelvis_tilt	pelvis_list	pelvis_rotation	pelvis_tx	pelvis_ty	pelvis_tz	hip_flexion_r	hip_adduction_r	hip_rotation_r	knee_angle_r	ankle_angle_r	subtalar_angle_r	mtp_angle_r	hip_flexion_l	hip_adduction_l	hip_rotation_l	knee_angle_l	ankle_angle_l	subtalar_angle_l	mtp_angle_l	lumbar_extension	lumbar_bending	lumbar_rotation
      0.70500000	      0.20828469	      1.69259077	      5.54339573	     -0.40914602	      1.07912987	      0.26790502	      8.33728581	      1.27049056	     -4.69652479	    -19.94856439	     11.39832168	     -6.06813334	      4.97730602	     18.11985688	     -2.01437854	     -3.49365413	    -69.28793974	      6.91523526	      4.36323828	      4.48056629	    -16.29499586	      2.32942624	     -1.98456951
      0.70916667	      0.23436488	      1.86036492	      5.44356641	     -0.40399677	      1.08017848	      0.26826017	      7.80999275	      1.14820606	     -4.62852694	    -19.55451571	     11.39739130	     -5.99276422	      4.95752866	     18.51537866	     -1.81898908	     -3.67173914	    -68.64206263	      7.19327263	      4.63559759	      4.48963516	    -16.38541774	      2.08921567	     -1.84564621
      0.71333333	      0.29311255	      2.00119415	      5.33566764	     -0.39885200	      1.08122548	      0.26863201	      7.24014618	      1.06081785	     -4.55414075	    -19.13206593	     11.39564014	     -5.92989877	      4.92378645	     18.86627946	     -1.66804540	     -3.86616502	    -67.95731557	      7.46946608	      4.89560307	      4.50151946	    -16.50962087	      1.85434406	     -1.59887761
      0.71750000	      0.32747830	      2.16072748	      5.21314448	     -0.39371042	      1.08219929	      0.26900706	      6.70755489	      0.94674492	     -4.47280954	    -18.73560141	     11.41998144	     -5.85895548	      4.90406758	     19.22151873	     -1.49396068	     -4.07649810	    -67.20894778	      7.71869295	      5.15444901	      4.51175744	    -16.59993327	      1.61576514	     -1.45563766
      0.72166667	      0.36594558	      2.30052499	      5.08825496	     -0.38855433	      1.08313329	      0.26937596	      6.16641337	      0.85321961	     -4.39214524	    -18.32309278	     11.42214744	     -5.78589494	      4.88246955	     19.55970791	     -1.34629502	     -4.29234015	    -66.41803676	      7.96726240	      5.38754251	      4.52259503	    -16.69522992	      1.37731390	     -1.25698324
      0.72583333	      0.39590879	      2.43889395	      4.95494443	     -0.38341211	      1.08399479	      0.26974798	      5.64150008	      0.75784358	     -4.30994173	    -17.92185912	     11.42820802	     -5.71166035	      4.86300772	     19.89230853	     -1.20060445	     -4.51544475	    -65.57887302	      8.20281182	      5.60229852	      4.53240057	    -16.77835622	      1.15213522	     -1.06946562
      0.73000000	      0.43087574	      2.57451128	      4.81556661	     -0.37827312	      1.08483354	      0.27010868	      5.11207069	      0.66279206	     -4.22350080	    -17.51763726	     11.42964879	     -5.63875816	      4.84456925	     20.20092618	     -1.05741203	     -4.74072555	    -64.68613561	      8.42370707	      5.79070353	      4.54091067	    -16.86753271	      0.93084617	     -0.87716967
      0.73416667	      0.45365528	      2.71964157	      4.66463205	     -0.37313036	      1.08561204	      0.27046950	      4.60525210	      0.55157516	     -4.14241782	    -17.13268315	     11.42109479	     -5.55509024	      4.83144881	     20.50071758	     -0.90292043	     -4.97705418	    -63.73582723	      8.62838494	      5.95503395	      4.54709946	    -16.93787747	      0.70613652	     -0.72348165
      0.73833333	      0.47970914	      2.83276556	      4.52562201	     -0.36798814	      1.08631359	      0.27080615	      4.08655115	      0.47521202	     -4.05728726	    -16.72511635	     11.44285249	     -5.47311775	      4.81466789	     20.79306187	     -0.78318507	     -5.19745210	    -62.76033058	      8.82222950	      6.09745684	      4.55273240	    -17.01548921	      0.49674561	     -0.48949251
      0.74250000	      0.50185891	      2.95232140	      4.37546689	     -0.36285188	      1.08697631	      0.27114378	      3.58041009	      0.38765779	     -3.97102872	    -16.33193171	     11.44391759	     -5.38709848	      4.79690283	     21.06707938	     -0.65454628	     -5.42177363	    -61.72612178	      8.99897853	      6.21342988	      4.55659635	    -17.08608158	      0.29355355	     -0.28659216
      0.74666667	      0.48314442	      3.06740541	      4.22889464	     -0.35769751	      1.08750913	      0.27146425	      3.12670189	      0.29685752	     -3.90385432	    -15.95632689	     11.43369534	     -5.29363563	      4.78895719	     21.37039504	     -0.52574737	     -5.64152904	    -60.65028401	      9.16313944	      6.31437054	      4.55856159	    -17.09386229	      0.09175851	     -0.18867472
      0.75083333	      0.53696524	      3.17314852	      4.07847721	     -0.35258936	      1.08811827	      0.27178633	      2.58832458	      0.22286753	     -3.81946727	    -15.56060258	     11.47619398	     -5.21784355	      4.77563490	     21.57835615	     -0.41261569	     -5.85759274	    -59.52336701	      9.29218232	      6.38851136	      4.55915112	    -17.20005721	     -0.09321490	      0.05408716
      0.75500000	      0.54573302	      3.27076989	      3.93118383	     -0.34746823	      1.08859282	      0.27207568	      2.10662090	      0.14876886	     -3.74025562	    -15.18083631	     11.48568071	     -5.12824205	      4.76109034	     21.81931328	     -0.29593953	     -6.05379592	    -58.35502328	      9.41517366	      6.44002873	      4.55901875	    -17.25339369	     -0.27105505	      0.25128856
      0.75916667	      0.54220957	      3.36073564	      3.78779165	     -0.34235136	      1.08898085	      0.27235478	      1.64298019	      0.07979064	     -3.67219049	    -14.80970519	     11.50800117	     -5.03949144	      4.74789665	     22.05958815	     -0.18558544	     -6.24412295	    -57.14701824	      9.51245531	      6.46945943	      4.55837951	    -17.28485671	     -0.43905870	      0.42174971
